<svg width="169" height="53" viewBox="0 0 169 53" fill="none" xmlns="http://www.w3.org/2000/svg">
<path d="M56.8719 26.2267H43.7587H45.9442C47.6831 26.2267 49.3508 26.9175 50.5804 28.1471C51.81 29.3767 52.5008 31.0444 52.5008 32.7833C52.5008 34.5222 51.81 36.1899 50.5804 37.4195C49.3508 38.6491 47.6831 39.3399 45.9442 39.3399H43.7587L50.3153 45.8965M43.7587 32.7833H56.8719M26.2744 10.928C26.2744 12.0872 25.8138 13.199 24.9941 14.0188C24.1744 14.8385 23.0626 15.299 21.9033 15.299C20.744 15.299 19.6322 14.8385 18.8125 14.0188C17.9927 13.199 17.5322 12.0872 17.5322 10.928C17.5322 9.76868 17.9927 8.65688 18.8125 7.83714C19.6322 7.01741 20.744 6.55688 21.9033 6.55688C23.0626 6.55688 24.1744 7.01741 24.9941 7.83714C25.8138 8.65688 26.2744 9.76868 26.2744 10.928ZM26.2744 10.928H43.7587M26.2744 10.928V28.4122C26.2744 30.1512 26.9652 31.8189 28.1948 33.0485C29.4244 34.2781 31.0921 34.9688 32.831 34.9688H35.0165M43.7587 10.928C43.7587 12.0872 44.2192 13.199 45.0389 14.0188C45.8586 14.8385 46.9704 15.299 48.1297 15.299C49.289 15.299 50.4008 14.8385 51.2205 14.0188C52.0403 13.199 52.5008 12.0872 52.5008 10.928C52.5008 9.76868 52.0403 8.65688 51.2205 7.83714C50.4008 7.01741 49.289 6.55688 48.1297 6.55688C46.9704 6.55688 45.8586 7.01741 45.0389 7.83714C44.2192 8.65688 43.7587 9.76868 43.7587 10.928Z" stroke="#007AFF" stroke-width="2.09811" stroke-linecap="round" stroke-linejoin="round"/>
<path d="M85.8526 32.7264H78.2716V19.1604H85.8526V20.6614H79.9816V24.8984H85.5106V26.3804H79.9816V31.2254H85.8526V32.7264ZM92.4582 22.3714C93.6995 22.3714 94.6179 22.6438 95.2132 23.1884C95.8085 23.7331 96.1062 24.6008 96.1062 25.7914V32.7264H94.8902L94.5672 31.2824H94.4912C94.0479 31.8398 93.5792 32.2514 93.0852 32.5174C92.6039 32.7834 91.9325 32.9164 91.0712 32.9164C90.1465 32.9164 89.3802 32.6758 88.7722 32.1944C88.1642 31.7004 87.8602 30.9341 87.8602 29.8954C87.8602 28.8821 88.2592 28.1031 89.0572 27.5584C89.8552 27.0011 91.0839 26.6971 92.7432 26.6464L94.4722 26.5894V25.9814C94.4722 25.1328 94.2885 24.5438 93.9212 24.2144C93.5539 23.8851 93.0345 23.7204 92.3632 23.7204C91.8312 23.7204 91.3245 23.8028 90.8432 23.9674C90.3619 24.1194 89.9122 24.2968 89.4942 24.4994L88.9812 23.2454C89.4245 23.0048 89.9502 22.8021 90.5582 22.6374C91.1662 22.4601 91.7995 22.3714 92.4582 22.3714ZM92.9522 27.8054C91.6855 27.8561 90.8052 28.0588 90.3112 28.4134C89.8299 28.7681 89.5892 29.2684 89.5892 29.9144C89.5892 30.4844 89.7602 30.9024 90.1022 31.1684C90.4569 31.4344 90.9065 31.5674 91.4512 31.5674C92.3125 31.5674 93.0282 31.3331 93.5982 30.8644C94.1682 30.3831 94.4532 29.6484 94.4532 28.6604V27.7484L92.9522 27.8054ZM104.002 22.3524C104.192 22.3524 104.394 22.3651 104.61 22.3904C104.838 22.4031 105.034 22.4284 105.199 22.4664L104.99 24.0054C104.825 23.9674 104.641 23.9358 104.439 23.9104C104.249 23.8851 104.065 23.8724 103.888 23.8724C103.368 23.8724 102.881 24.0181 102.425 24.3094C101.969 24.5881 101.601 24.9871 101.323 25.5064C101.057 26.0131 100.924 26.6084 100.924 27.2924V32.7264H99.2516V22.5424H100.62L100.81 24.4044H100.886C101.215 23.8471 101.639 23.3658 102.159 22.9604C102.678 22.5551 103.292 22.3524 104.002 22.3524ZM112.002 22.3524C113.218 22.3524 114.137 22.6501 114.757 23.2454C115.378 23.8281 115.688 24.7781 115.688 26.0954V32.7264H114.035V26.2094C114.035 24.5754 113.275 23.7584 111.755 23.7584C110.628 23.7584 109.849 24.0751 109.418 24.7084C108.988 25.3418 108.772 26.2538 108.772 27.4444V32.7264H107.1V22.5424H108.449L108.696 23.9294H108.791C109.121 23.3974 109.577 23.0048 110.159 22.7514C110.742 22.4854 111.356 22.3524 112.002 22.3524ZM132.873 32.7264L131.239 28.5274H125.862L124.247 32.7264H122.518L127.819 19.1034H129.358L134.64 32.7264H132.873ZM129.206 22.9034C129.168 22.8021 129.105 22.6184 129.016 22.3524C128.928 22.0864 128.839 21.8141 128.75 21.5354C128.674 21.2441 128.611 21.0224 128.56 20.8704C128.472 21.2631 128.37 21.6494 128.256 22.0294C128.142 22.3968 128.047 22.6881 127.971 22.9034L126.432 27.0074H130.726L129.206 22.9034ZM141.113 22.3524C142.367 22.3524 143.374 22.7894 144.134 23.6634C144.907 24.5374 145.293 25.8548 145.293 27.6154C145.293 29.3508 144.907 30.6681 144.134 31.5674C143.374 32.4668 142.361 32.9164 141.094 32.9164C140.309 32.9164 139.657 32.7708 139.137 32.4794C138.631 32.1754 138.232 31.8271 137.94 31.4344H137.826C137.852 31.6498 137.877 31.9221 137.902 32.2514C137.928 32.5808 137.94 32.8658 137.94 33.1064V37.2864H136.268V22.5424H137.636L137.864 23.9294H137.94C138.244 23.4861 138.643 23.1124 139.137 22.8084C139.631 22.5044 140.29 22.3524 141.113 22.3524ZM140.809 23.7584C139.771 23.7584 139.036 24.0498 138.605 24.6324C138.187 25.2151 137.966 26.1018 137.94 27.2924V27.6154C137.94 28.8694 138.143 29.8384 138.548 30.5224C138.966 31.1938 139.733 31.5294 140.847 31.5294C141.468 31.5294 141.975 31.3584 142.367 31.0164C142.773 30.6744 143.07 30.2121 143.26 29.6294C143.463 29.0341 143.564 28.3564 143.564 27.5964C143.564 26.4311 143.336 25.5001 142.88 24.8034C142.437 24.1068 141.747 23.7584 140.809 23.7584ZM152.803 22.3524C154.057 22.3524 155.064 22.7894 155.824 23.6634C156.596 24.5374 156.983 25.8548 156.983 27.6154C156.983 29.3508 156.596 30.6681 155.824 31.5674C155.064 32.4668 154.05 32.9164 152.784 32.9164C151.998 32.9164 151.346 32.7708 150.827 32.4794C150.32 32.1754 149.921 31.8271 149.63 31.4344H149.516C149.541 31.6498 149.566 31.9221 149.592 32.2514C149.617 32.5808 149.63 32.8658 149.63 33.1064V37.2864H147.958V22.5424H149.326L149.554 23.9294H149.63C149.934 23.4861 150.333 23.1124 150.827 22.8084C151.321 22.5044 151.979 22.3524 152.803 22.3524ZM152.499 23.7584C151.46 23.7584 150.725 24.0498 150.295 24.6324C149.877 25.2151 149.655 26.1018 149.63 27.2924V27.6154C149.63 28.8694 149.832 29.8384 150.238 30.5224C150.656 31.1938 151.422 31.5294 152.537 31.5294C153.157 31.5294 153.664 31.3584 154.057 31.0164C154.462 30.6744 154.76 30.2121 154.95 29.6294C155.152 29.0341 155.254 28.3564 155.254 27.5964C155.254 26.4311 155.026 25.5001 154.57 24.8034C154.126 24.1068 153.436 23.7584 152.499 23.7584Z" fill="#007AFF"/>
</svg>
