<svg width="24" height="24" viewBox="0 0 24 24" fill="none" xmlns="http://www.w3.org/2000/svg">
<path d="M7 15H4C3.73478 15 3.48043 14.8946 3.29289 14.7071C3.10536 14.5196 3 14.2652 3 14V6C3 5.73478 3.10536 5.48043 3.29289 5.29289C3.48043 5.10536 3.73478 5 4 5H16C16.2652 5 16.5196 5.10536 16.7071 5.29289C16.8946 5.48043 17 5.73478 17 6V9" stroke="#dc3545" stroke-width="2" stroke-linecap="round" stroke-linejoin="round"/>
<path d="M12 19H8C7.73478 19 7.48043 18.8946 7.29289 18.7071C7.10536 18.5196 7 18.2652 7 18V10C7 9.73478 7.10536 9.48043 7.29289 9.29289C7.48043 9.10536 7.73478 9 8 9H20C20.2652 9 20.5196 9.10536 20.7071 9.29289C20.8946 9.48043 21 9.73478 21 10V12.5" stroke="#dc3545" stroke-width="2" stroke-linecap="round" stroke-linejoin="round"/>
<path d="M15.92 13.437C15.822 13.1036 15.6389 12.8016 15.3886 12.5605C15.1383 12.3195 14.8296 12.1478 14.4928 12.0624C14.156 11.977 13.8027 11.9808 13.4678 12.0734C13.1329 12.1661 12.828 12.3444 12.583 12.5908C12.338 12.8372 12.1614 13.1432 12.0706 13.4786C11.9799 13.814 11.978 14.1672 12.0653 14.5036C12.1527 14.8399 12.3261 15.1477 12.5685 15.3966C12.811 15.6455 13.1141 15.8269 13.448 15.923M16 19H22M22 19L19 16M22 19L19 22" stroke="#dc3545" stroke-width="2" stroke-linecap="round" stroke-linejoin="round"/>
</svg>
