<svg width="24" height="24" viewBox="0 0 24 24" fill="none" xmlns="http://www.w3.org/2000/svg">
<path d="M7 15H4C3.73478 15 3.48043 14.8946 3.29289 14.7071C3.10536 14.5196 3 14.2652 3 14V6C3 5.73478 3.10536 5.48043 3.29289 5.29289C3.48043 5.10536 3.73478 5 4 5H16C16.2652 5 16.5196 5.10536 16.7071 5.29289C16.8946 5.48043 17 5.73478 17 6V9" stroke="#28a745" stroke-width="2" stroke-linecap="round" stroke-linejoin="round"/>
<path d="M12 19H8C7.73478 19 7.48043 18.8946 7.29289 18.7071C7.10536 18.5196 7 18.2652 7 18V10C7 9.73478 7.10536 9.48043 7.29289 9.29289C7.48043 9.10536 7.73478 9 8 9H20C20.2652 9 20.5196 9.10536 20.7071 9.29289C20.8946 9.48043 21 9.73478 21 10V12.5" stroke="#28a745" stroke-width="2" stroke-linecap="round" stroke-linejoin="round"/>
<path d="M15.914 13.417C15.8126 13.0847 15.6264 12.7845 15.3737 12.546C15.121 12.3076 14.8106 12.1391 14.4729 12.0571C14.1353 11.9751 13.7821 11.9825 13.4482 12.0785C13.1143 12.1746 12.8112 12.3559 12.5687 12.6048C12.3262 12.8536 12.1527 13.1613 12.0653 13.4976C11.978 13.8339 11.9797 14.1871 12.0703 14.5225C12.161 14.8579 12.3375 15.1639 12.5824 15.4104C12.8273 15.6568 13.1322 15.8352 13.467 15.928M16 19H22M16 19L19 16M16 19L19 22" stroke="#28a745" stroke-width="2" stroke-linecap="round" stroke-linejoin="round"/>
</svg>
