<svg width="48" height="48" viewBox="0 0 48 48" fill="none" xmlns="http://www.w3.org/2000/svg">
<path d="M12 24C10.9391 24 9.92172 23.5786 9.17157 22.8284C8.42143 22.0783 8 21.0609 8 20C8 18.9391 8.42143 17.9217 9.17157 17.1716C9.92172 16.4214 10.9391 16 12 16M12 24C13.0609 24 14.0783 23.5786 14.8284 22.8284C15.5786 22.0783 16 21.0609 16 20C16 18.9391 15.5786 17.9217 14.8284 17.1716C14.0783 16.4214 13.0609 16 12 16M12 24V40M12 16V8M27.646 30.352C27.3788 29.7621 26.9724 29.2458 26.4617 28.8476C25.9509 28.4494 25.3511 28.1812 24.7138 28.066C24.0765 27.9508 23.4208 27.992 22.803 28.1862C22.1851 28.3804 21.6237 28.7217 21.1669 29.1807C20.7101 29.6398 20.3716 30.2029 20.1804 30.8217C19.9893 31.4405 19.9513 32.0964 20.0696 32.7331C20.1879 33.3698 20.4591 33.9683 20.8598 34.4771C21.2605 34.9858 21.7788 35.3897 22.37 35.654M24 8V28M36 18C34.9391 18 33.9217 17.5786 33.1716 16.8284C32.4214 16.0783 32 15.0609 32 14C32 12.9391 32.4214 11.9217 33.1716 11.1716C33.9217 10.4214 34.9391 10 36 10M36 18C37.0609 18 38.0783 17.5786 38.8284 16.8284C39.5786 16.0783 40 15.0609 40 14C40 12.9391 39.5786 11.9217 38.8284 11.1716C38.0783 10.4214 37.0609 10 36 10M36 18V28M36 10V8M30 38L34 42L42 34" stroke="white" stroke-width="2" stroke-linecap="round" stroke-linejoin="round"/>
</svg>
