<svg width="20" height="20" viewBox="0 0 20 20" fill="none" xmlns="http://www.w3.org/2000/svg">
<path d="M5 12C6.10457 12 7 11.1046 7 10C7 8.89543 6.10457 8 5 8C3.89543 8 3 8.89543 3 10C3 11.1046 3.89543 12 5 12Z" fill="#007AFF"/>
<path d="M10 12C11.1046 12 12 11.1046 12 10C12 8.89543 11.1046 8 10 8C8.89543 8 8 8.89543 8 10C8 11.1046 8.89543 12 10 12Z" fill="#007AFF"/>
<path d="M15 12C16.1046 12 17 11.1046 17 10C17 8.89543 16.1046 8 15 8C13.8954 8 13 8.89543 13 10C13 11.1046 13.8954 12 15 12Z" fill="#007AFF"/>
</svg>
