<svg width="20" height="20" viewBox="0 0 20 20" fill="none" xmlns="http://www.w3.org/2000/svg">
<g clip-path="url(#clip0_12_77)">
<mask id="mask0_12_77" style="mask-type:luminance" maskUnits="userSpaceOnUse" x="0" y="0" width="20" height="20">
<path d="M0 0H20V20H0V0Z" fill="white"/>
</mask>
<g mask="url(#mask0_12_77)">
<path d="M6.46106 5.24622H13.4134V7.43185H12.4405C12.1164 7.09351 11.7271 6.82436 11.2961 6.64064C10.8651 6.45692 10.4014 6.36245 9.93288 6.36293C9.46436 6.36245 9.00061 6.45692 8.56962 6.64064C8.13863 6.82436 7.74934 7.09351 7.42526 7.43185H6.46106V5.24622ZM12.4774 12.2072H13.4134V14.8057H6.46106V12.2072H7.38833C7.71329 12.5572 8.10705 12.8363 8.54491 13.0269C8.98277 13.2176 9.4553 13.3158 9.93288 13.3153C10.4104 13.3158 10.883 13.2176 11.3208 13.0269C11.7587 12.8363 12.1525 12.5572 12.4774 12.2072ZM8.9161 8.61592C8.70546 8.56438 8.5182 8.44368 8.38428 8.27313C8.25036 8.10258 8.17752 7.89203 8.17741 7.67518H9.17247C9.48097 7.67518 9.75646 7.81988 9.93374 8.04539C10.0246 7.92838 10.1412 7.83377 10.2743 7.76884C10.4075 7.70391 10.5538 7.67038 10.702 7.67084H11.6927C11.6927 7.88956 11.6188 8.10186 11.4828 8.27321C11.3469 8.44456 11.157 8.56489 10.944 8.61462C11.3616 8.6977 11.7334 8.93294 11.9873 9.27469C12.2412 9.61644 12.3591 10.0403 12.3182 10.4641C12.2772 10.8879 12.0802 11.2813 11.7655 11.5681C11.4508 11.8549 11.0408 12.0145 10.6151 12.016H9.25068C8.30342 12.016 7.53432 11.2469 7.53432 10.2997C7.53458 9.90258 7.67238 9.51782 7.92429 9.21085C8.1762 8.90388 8.52668 8.69365 8.9161 8.61592Z" fill="#007AFF"/>
<path d="M4.28845 4.58575C4.28845 4.1801 4.4496 3.79107 4.73644 3.50423C5.02327 3.21739 5.41231 3.05624 5.81796 3.05624H13.7697C14.088 3.05619 14.3985 3.15548 14.6577 3.34026C14.917 3.52505 15.1121 3.78612 15.2159 4.08708C15.3197 4.38804 15.327 4.71388 15.2367 5.01919C15.1465 5.32449 14.9633 5.59404 14.7126 5.79024V14.2634C14.8955 14.407 15.0433 14.5903 15.1449 14.7994C15.2465 15.0085 15.2993 15.238 15.2992 15.4705C15.2992 15.8761 15.138 16.2652 14.8512 16.552C14.5644 16.8388 14.1753 17 13.7697 17H5.81796C5.41231 17 5.02327 16.8388 4.73644 16.552C4.4496 16.2652 4.28845 15.8761 4.28845 15.4705C4.28865 15.1815 4.37028 14.8983 4.52399 14.6536C4.67769 14.4088 4.89725 14.2123 5.15749 14.0865V5.96579C4.8972 5.84117 4.67747 5.64546 4.5237 5.40126C4.36992 5.15706 4.28836 4.87434 4.28845 4.58575ZM13.7697 3.92528H5.81796C5.6428 3.92528 5.4748 3.99487 5.35094 4.11873C5.22708 4.24259 5.15749 4.41059 5.15749 4.58575C5.15749 4.76092 5.22708 4.92892 5.35094 5.05278C5.4748 5.17664 5.6428 5.24623 5.81796 5.24623H6.02653V14.8057H5.81796C5.45297 14.8057 5.15749 15.1055 5.15749 15.4705C5.15749 15.8355 5.45297 16.131 5.81796 16.131H13.7697C14.1347 16.131 14.4302 15.8355 14.4302 15.4705C14.4302 15.1316 14.176 14.8491 13.8479 14.81V5.24188C14.0156 5.22256 14.1696 5.13973 14.2781 5.01042C14.3867 4.8811 14.4416 4.71513 14.4316 4.54658C14.4216 4.37804 14.3474 4.21973 14.2243 4.10418C14.1012 3.98863 13.9385 3.92461 13.7697 3.92528Z" fill="#007AFF"/>
</g>
</g>
<defs>
<clipPath id="clip0_12_77">
<rect width="20" height="20" fill="white"/>
</clipPath>
</defs>
</svg>
