<svg width="41" height="40" viewBox="0 0 41 40" fill="none" xmlns="http://www.w3.org/2000/svg">
<rect x="0.285706" width="40" height="40" rx="7" fill="white"/>
<path d="M29.8749 20.5H23.6249H24.6666C25.4954 20.5 26.2903 20.8292 26.8763 21.4153C27.4624 22.0013 27.7916 22.7962 27.7916 23.625C27.7916 24.4538 27.4624 25.2487 26.8763 25.8347C26.2903 26.4208 25.4954 26.75 24.6666 26.75H23.6249L26.7499 29.875M23.6249 23.625H29.8749M15.2916 13.2083C15.2916 13.7609 15.0721 14.2908 14.6814 14.6815C14.2907 15.0722 13.7608 15.2917 13.2083 15.2917C12.6557 15.2917 12.1258 15.0722 11.7351 14.6815C11.3444 14.2908 11.1249 13.7609 11.1249 13.2083C11.1249 12.6558 11.3444 12.1259 11.7351 11.7352C12.1258 11.3445 12.6557 11.125 13.2083 11.125C13.7608 11.125 14.2907 11.3445 14.6814 11.7352C15.0721 12.1259 15.2916 12.6558 15.2916 13.2083ZM15.2916 13.2083H23.6249M15.2916 13.2083V21.5417C15.2916 22.3705 15.6208 23.1653 16.2069 23.7514C16.7929 24.3374 17.5878 24.6667 18.4166 24.6667H19.4583M23.6249 13.2083C23.6249 13.7609 23.8444 14.2908 24.2351 14.6815C24.6258 15.0722 25.1557 15.2917 25.7083 15.2917C26.2608 15.2917 26.7907 15.0722 27.1814 14.6815C27.5721 14.2908 27.7916 13.7609 27.7916 13.2083C27.7916 12.6558 27.5721 12.1259 27.1814 11.7352C26.7907 11.3445 26.2608 11.125 25.7083 11.125C25.1557 11.125 24.6258 11.3445 24.2351 11.7352C23.8444 12.1259 23.6249 12.6558 23.6249 13.2083Z" stroke="#007AFF" stroke-linecap="round" stroke-linejoin="round"/>
</svg>
