<svg width="297" height="283" viewBox="0 0 297 283" fill="none" xmlns="http://www.w3.org/2000/svg">
<path d="M6.5 81.5C6.5 68.5 6.5 41.9 6.5 23.5C6.5 6.49999 8 6.5 24.5 6.5C37.7 6.5 65 6.5 77 6.5" stroke="#3b82f6" stroke-width="12" stroke-linecap="round"/>
<path d="M6.5 202C6.5 215 6.5 241.6 6.5 260C6.5 277 8 277 24.5 277C37.7 277 65 277 77 277" stroke="#3b82f6" stroke-width="12" stroke-linecap="round"/>
<path d="M290.5 81.5C290.5 68.5 290.5 41.9 290.5 23.5C290.5 6.49999 289 6.5 272.5 6.5C259.3 6.5 232 6.5 220 6.5" stroke="#3b82f6" stroke-width="12" stroke-linecap="round"/>
<path d="M290.5 202C290.5 215 290.5 241.6 290.5 260C290.5 277 289 277 272.5 277C259.3 277 232 277 220 277" stroke="#3b82f6" stroke-width="12" stroke-linecap="round"/>
<rect x="48" y="44" width="80" height="82" rx="11" stroke="#3b82f6" stroke-width="12"/>
<rect x="48" y="161" width="80" height="82" rx="11" stroke="#3b82f6" stroke-width="12"/>
<rect x="162" y="161" width="40" height="41" rx="11" stroke="#3b82f6" stroke-width="12"/>
<rect x="221" y="161" width="30" height="31" rx="11" stroke="#3b82f6" stroke-width="12"/>
<rect x="221" y="212" width="30" height="31" rx="11" stroke="#3b82f6" stroke-width="12"/>
<rect x="172" y="219" width="30" height="31" rx="11" stroke="#3b82f6" stroke-width="12"/>
<path d="M183.843 130.974L208.073 47.1431L230.075 88.3622L183.843 130.974Z" fill="#3b82f6"/>
<path d="M241.494 88.3622L224.784 55.2198C222.277 58.5619 216.707 57.1694 217.821 53.8273C218.712 51.1536 221.163 41.573 222.277 37.1169L248.178 88.9192L193.034 141C194.426 135.987 197.49 125.069 198.604 121.505C199.718 117.94 203.153 120.39 204.731 122.062L241.494 88.3622Z" fill="#3b82f6"/>
</svg>
