<svg width="24" height="24" viewBox="0 0 24 24" fill="none" xmlns="http://www.w3.org/2000/svg">
<path d="M15 5C15.1857 5.0001 15.3676 5.05188 15.5255 5.14955C15.6834 5.24722 15.811 5.38692 15.894 5.553L19.119 12.002L19.199 12.005C19.9807 12.0439 20.7338 12.3113 21.365 12.7741C21.9962 13.2368 22.4778 13.8746 22.7501 14.6083C23.0224 15.3421 23.0735 16.1396 22.897 16.9021C22.7205 17.6646 22.3242 18.3585 21.7572 18.898C21.1901 19.4375 20.4773 19.7987 19.707 19.9371C18.9366 20.0754 18.1427 19.9847 17.4234 19.6762C16.7041 19.3677 16.0911 18.855 15.6603 18.2016C15.2296 17.5481 15 16.7827 15 16L15.005 15.8C15.0393 15.1099 15.2518 14.4404 15.6217 13.8568C15.9917 13.2733 16.5065 12.7955 17.116 12.47L16.559 11.355L13.207 14.707C13.0195 14.8945 12.7652 14.9999 12.5 15H8.874C8.95667 15.3207 8.99867 15.654 9 16C9 17.0609 8.57857 18.0783 7.82843 18.8284C7.07828 19.5786 6.06087 20 5 20C3.93913 20 2.92172 19.5786 2.17157 18.8284C1.42143 18.0783 1 17.0609 1 16L1.005 15.8C1.04074 15.0818 1.26943 14.3865 1.66701 13.7873C2.06459 13.1881 2.61636 12.7071 3.26423 12.395C3.9121 12.083 4.63212 11.9513 5.3485 12.014C6.06488 12.0766 6.75112 12.3312 7.335 12.751L9.084 11H6C5.75507 11 5.51866 10.91 5.33563 10.7473C5.15259 10.5845 5.03566 10.3603 5.007 10.117L5 10C5 9.73478 5.10536 9.48043 5.29289 9.29289C5.48043 9.10536 5.73478 9 6 9H15.381L14.381 7H13C12.7551 6.99997 12.5187 6.91004 12.3356 6.74728C12.1526 6.58453 12.0357 6.36025 12.007 6.117L12 6C12 5.73478 12.1054 5.48043 12.2929 5.29289C12.4804 5.10536 12.7348 5 13 5H15Z" fill="#007AFF"/>
</svg>
