<svg xmlns="http://www.w3.org/2000/svg" x="0px" y="0px" width="100" height="100" viewBox="0 0 32 32">
<linearGradient id="LrsUqij6zmm-FK8uWpUPPa_BnFdXmRYms8Y_gr1" x1="18.782" x2="18.782" y1="3.065" y2="30.334" gradientUnits="userSpaceOnUse"><stop offset="0" stop-color="#00ad4a"></stop><stop offset="1" stop-color="#008c3c"></stop></linearGradient><polygon fill="url(#LrsUqij6zmm-FK8uWpUPPa_BnFdXmRYms8Y_gr1)" points="11.204,30.363 19.07,2.785 26.36,16.594"></polygon><linearGradient id="LrsUqij6zmm-FK8uWpUPPb_BnFdXmRYms8Y_gr2" x1="18.782" x2="18.782" y1="2.785" y2="30.363" gradientUnits="userSpaceOnUse"><stop offset="0" stop-opacity=".02"></stop><stop offset="1" stop-opacity=".15"></stop></linearGradient><path fill="url(#LrsUqij6zmm-FK8uWpUPPb_BnFdXmRYms8Y_gr2)" d="M19.07,2.785l-7.865,27.578L26.36,16.594	L19.07,2.785z M19.139,3.452l6.91,13.087L11.685,29.588L19.139,3.452z"></path><linearGradient id="LrsUqij6zmm-FK8uWpUPPc_BnFdXmRYms8Y_gr3" x1="13.968" x2="13.968" y1="1.829" y2="28.631" gradientUnits="userSpaceOnUse"><stop offset="0" stop-color="#ff9a45"></stop><stop offset="1" stop-color="#ff7a08"></stop></linearGradient><polygon fill="url(#LrsUqij6zmm-FK8uWpUPPc_BnFdXmRYms8Y_gr3)" points="6.39,29.407 14.256,1.829 21.546,15.638"></polygon><linearGradient id="LrsUqij6zmm-FK8uWpUPPd_BnFdXmRYms8Y_gr4" x1="13.968" x2="13.968" y1="1.829" y2="29.407" gradientUnits="userSpaceOnUse"><stop offset="0" stop-opacity=".02"></stop><stop offset="1" stop-opacity=".15"></stop></linearGradient><path fill="url(#LrsUqij6zmm-FK8uWpUPPd_BnFdXmRYms8Y_gr4)" d="M14.256,1.829L6.39,29.407l15.156-13.769	L14.256,1.829z M14.325,2.496l6.91,13.087L6.871,28.633L14.325,2.496z"></path>
</svg>